<?xml version="1.0" encoding="UTF-8" standalone="no"?>
<svg
   xmlns:dc="http://purl.org/dc/elements/1.1/"
   xmlns:cc="http://creativecommons.org/ns#"
   xmlns:rdf="http://www.w3.org/1999/02/22-rdf-syntax-ns#"
   xmlns:svg="http://www.w3.org/2000/svg"
   xmlns="http://www.w3.org/2000/svg"
   xmlns:sodipodi="http://sodipodi.sourceforge.net/DTD/sodipodi-0.dtd"
   xmlns:inkscape="http://www.inkscape.org/namespaces/inkscape"
   width="400"
   height="400"
   viewBox="0 0 400 400"
   version="1.1"
   id="svg869"
   sodipodi:docname="icon.svg"
   inkscape:version="0.92.2 (5c3e80d, 2017-08-06)"
   inkscape:export-filename="/home/remipassmoilesel/projects/node-proxy-test/doc/icon.png"
   inkscape:export-xdpi="65.769997"
   inkscape:export-ydpi="65.769997">
  <metadata
     id="metadata875">
    <rdf:RDF>
      <cc:Work
         rdf:about="">
        <dc:format>image/svg+xml</dc:format>
        <dc:type
           rdf:resource="http://purl.org/dc/dcmitype/StillImage" />
        <dc:title />
      </cc:Work>
    </rdf:RDF>
  </metadata>
  <defs
     id="defs873" />
  <sodipodi:namedview
     pagecolor="#ffffff"
     bordercolor="#666666"
     borderopacity="1"
     objecttolerance="10"
     gridtolerance="10"
     guidetolerance="10"
     inkscape:pageopacity="0"
     inkscape:pageshadow="2"
     inkscape:window-width="1853"
     inkscape:window-height="1025"
     id="namedview871"
     showgrid="false"
     inkscape:zoom="1.16"
     inkscape:cx="325.49383"
     inkscape:cy="195.90517"
     inkscape:window-x="67"
     inkscape:window-y="27"
     inkscape:window-maximized="1"
     inkscape:current-layer="svg869" />
  <circle
     style="fill:#ffffff;stroke:#474747;stroke-width:44.13298798;stroke-opacity:1"
     cx="200"
     cy="200"
     r="169.51025"
     id="circle3030" />
  <path
     d="M 92.466389,-18.948781 418.94878,92.466389 307.53361,418.94878 -18.948781,307.53361 Z"
     id="path865"
     inkscape:connector-curvature="0"
     style="fill:none;stroke-width:7.18686819" />
  <path
     d="m 288.70015,210.7394 -22.49976,-17.29497 c 1.19759,-9.01515 0.38772,-18.23586 -2.46936,-26.86473 l 23.01295,-3.00989 -2.62091,-20.03898 -30.80197,4.02863 c -2.92614,-3.65045 -6.32942,-7.09444 -10.21282,-10.0795 -3.88343,-2.98508 -8.08684,-5.38815 -12.36702,-7.27702 l -4.02862,-30.80197 -20.03897,2.62091 3.00987,23.01296 c -9.07338,-0.54178 -18.19224,1.04702 -26.59614,4.52283 l -22.49977,-17.29494 -12.30958,16.01404 16.73471,12.86352 c -2.4407,2.26377 -4.7828,4.73073 -6.87544,7.45311 l -6.15481,8.00702 -16.01407,-12.30959 -12.30958,16.01408 16.01407,12.30957 -6.15479,8.00703 c -2.09263,2.72239 -3.87422,5.62018 -5.43416,8.56097 l -16.73471,-12.86351 -12.30958,16.01406 22.49977,17.29496 c -2.72982,20.7028 5.3165,42.30082 23.09212,55.96448 17.77562,13.66362 40.71651,15.88466 60.02087,7.92227 l 22.49976,17.29497 12.3096,-16.01408 -16.73471,-12.86349 c 2.44069,-2.26379 4.78278,-4.73073 6.87543,-7.4531 l 6.1548,-8.00706 16.01406,12.30961 12.30957,-16.01408 -16.01406,-12.30959 6.15479,-8.00703 c 2.09262,-2.72239 3.87423,-5.62017 5.43416,-8.56095 l 16.73471,12.8635 z m -97.28052,27.1275 -32.02815,-24.61916 12.30959,-16.01408 32.02813,24.6192 z m 24.61916,-32.02811 -32.02814,-24.61918 12.3096,-16.01407 32.02813,24.61916 z"
     id="path867"
     inkscape:connector-curvature="0"
     style="stroke-width:5.04960394" />
  <path
     inkscape:connector-curvature="0"
     id="path3818"
     d="M 75.299207,288.31741 103.819,317.14411 315.62192,103.06191 287.10212,74.235197 Z"
     style="color:#000000;font-style:normal;font-variant:normal;font-weight:normal;font-stretch:normal;font-size:medium;line-height:normal;font-family:Sans;-inkscape-font-specification:Sans;text-indent:0;text-align:start;text-decoration:none;text-decoration-line:none;letter-spacing:normal;word-spacing:normal;text-transform:none;writing-mode:lr-tb;direction:ltr;baseline-shift:baseline;text-anchor:start;display:inline;overflow:visible;visibility:visible;fill:#474747;fill-opacity:1;stroke:none;stroke-width:40.18907928;marker:none;enable-background:accumulate"
     sodipodi:nodetypes="ccccc" />
</svg>
